<svg width="100" height="100" viewBox="0 0 100 100" fill="none" xmlns="http://www.w3.org/2000/svg">
<g clip-path="url(#clip0)">
<path d="M81.8889 77.2727L91 81.8182V9.09091C91 4.09091 86.9 0 81.8889 0H36.2878C31.2767 0 27.2222 4.09091 27.2222 9.09091H72.7778C77.7889 9.09091 81.8889 13.1818 81.8889 18.1818V77.2727ZM63.6667 18.1818H18.1111C13.1 18.1818 9 22.2727 9 27.2727V100L40.8889 86.3636L72.7778 100V27.2727C72.7778 22.2727 68.6778 18.1818 63.6667 18.1818Z" fill="#004F94"/>
<path d="M33.2188 60.0781C35.1875 60.5469 36.7969 61.4688 38.0469 62.8438C39.3281 64.2188 39.9688 66.0781 39.9688 68.4219C39.9688 71.2656 38.8438 73.5 36.5938 75.125C34.375 76.7188 31.4375 77.5156 27.7812 77.5156C24.2188 77.5156 20.9531 76.8906 17.9844 75.6406C17.1406 75.2969 16.7188 74.6875 16.7188 73.8125C16.7188 73.25 16.8906 72.7812 17.2344 72.4062C17.6094 72 18.0781 71.7969 18.6406 71.7969C18.9219 71.7969 19.2188 71.8594 19.5312 71.9844C21.8125 72.8906 24.2969 73.3438 26.9844 73.3438C29.5781 73.3438 31.6562 72.9219 33.2188 72.0781C34.8125 71.2344 35.6094 69.9375 35.6094 68.1875C35.6094 64.2812 32.1719 62.3281 25.2969 62.3281H24.5469C24.0156 62.3281 23.5469 62.125 23.1406 61.7188C22.7344 61.3125 22.5312 60.8438 22.5312 60.3125C22.5312 59.7812 22.7344 59.3125 23.1406 58.9062C23.5469 58.5 24.0156 58.2969 24.5469 58.2969H24.8281C27.9844 58.2969 30.375 57.8281 32 56.8906C33.625 55.9219 34.4375 54.5156 34.4375 52.6719C34.4375 51.1406 33.7969 49.9531 32.5156 49.1094C31.2344 48.2656 29.4219 47.8438 27.0781 47.8438C24.4219 47.8438 22 48.3594 19.8125 49.3906C19.5 49.5156 19.2188 49.5781 18.9688 49.5781C18.5 49.5781 18.0781 49.4062 17.7031 49.0625C17.3594 48.7188 17.1875 48.2969 17.1875 47.7969C17.1875 47.0781 17.5156 46.5312 18.1719 46.1562C21.1406 44.5625 24.2344 43.7656 27.4531 43.7656C31.0469 43.7656 33.8281 44.5 35.7969 45.9688C37.7969 47.4375 38.7969 49.5312 38.7969 52.25C38.7969 56.0625 36.9375 58.6719 33.2188 60.0781Z" fill="white"/>
<path d="M44.45 77.2812C43.8563 77.2812 43.3406 77.0781 42.9031 76.6719C42.4969 76.2344 42.2938 75.7188 42.2938 75.125V44.7031C42.2938 44.1094 42.4969 43.5938 42.9031 43.1562C43.3406 42.7188 43.8563 42.5 44.45 42.5C45.0438 42.5 45.5594 42.7188 45.9969 43.1562C46.4344 43.5938 46.6531 44.1094 46.6531 44.7031V63.7812L57.7156 53.5156C58.2156 53.1094 58.7 52.9062 59.1688 52.9062C59.8563 52.9062 60.3719 53.0938 60.7156 53.4688C61.0906 53.8438 61.2781 54.3594 61.2781 55.0156C61.2781 55.5156 61.0125 56.0625 60.4813 56.6562L53.7313 62.6562L62.2156 73.8594C62.5281 74.3281 62.6844 74.7656 62.6844 75.1719C62.6844 75.7969 62.4656 76.3125 62.0281 76.7188C61.6219 77.0938 61.1063 77.2812 60.4813 77.2812C60.1688 77.2812 59.8406 77.2031 59.4969 77.0469C59.1844 76.8906 58.9188 76.6719 58.7 76.3906L50.6844 65.4219L46.6531 69.0781V75.125C46.6531 75.7188 46.4344 76.2344 45.9969 76.6719C45.5594 77.0781 45.0438 77.2812 44.45 77.2812Z" fill="white"/>
</g>
<defs>
<clipPath id="clip0">
<rect width="100" height="100" fill="white"/>
</clipPath>
</defs>
</svg>
