<svg width="300" height="300" viewBox="0 0 300 300" fill="none" xmlns="http://www.w3.org/2000/svg">
<path d="M150 300C232.843 300 300 232.843 300 150C300 67.1573 232.843 0 150 0C67.1573 0 0 67.1573 0 150C0 232.843 67.1573 300 150 300Z" fill="#0058A3"/>
<path d="M236.25 75H63.75C53.4375 75 45 83.4375 45 93.75V206.25C45 216.562 53.4375 225 63.75 225H236.25C246.562 225 255 216.562 255 206.25V93.75C255 83.4375 246.562 75 236.25 75ZM105 135C96.7125 135 90 128.287 90 120C90 111.713 96.7125 105 105 105C113.288 105 120 111.713 120 120C120 128.287 113.288 135 105 135ZM195 135C186.712 135 180 128.287 180 120C180 111.713 186.712 105 195 105C203.288 105 210 111.713 210 120C210 128.287 203.288 135 195 135Z" fill="white"/>
</svg>
