<?xml version="1.0" encoding="iso-8859-1"?>
<!-- Generator: Adobe Illustrator 16.0.0, SVG Export Plug-In . SVG Version: 6.00 Build 0)  -->
<!DOCTYPE svg PUBLIC "-//W3C//DTD SVG 1.1//EN" "http://www.w3.org/Graphics/SVG/1.1/DTD/svg11.dtd">
<svg version="1.1" id="&#x5716;&#x5C64;_1" xmlns="http://www.w3.org/2000/svg" xmlns:xlink="http://www.w3.org/1999/xlink" x="0px"
	 y="0px" width="1040px" height="1040px">
	 
<linearGradient id="SVGID_1_" gradientUnits="userSpaceOnUse" x1="167.9041" y1="522.2021" x2="879.0491" y2="522.2021">
	<stop  offset="0" style="stop-color:#FFFFFF"/>
	<stop  offset="0" style="stop-color:#619FD6"/>
	<stop  offset="0.5158" style="stop-color:#1173B8"/>
	<stop  offset="1" style="stop-color:#004C8C"/>
</linearGradient>
<path style="fill:url(#SVGID_1_);" d="M806.934,161.859C749.723,85.315,673.006,39.415,578.588,23.545
	c-3.492-0.584-4.984-0.044-9.756-1.211c-32.785,0-65.363-5.583-97.082-1.333c-15.365,5-14.631,2.958-21.25,4.333
	c-181.621,37.76-302.727,210.243-279.82,393.349c14.155,113.128,63.639,212.118,120.52,308.403
	c54.42,92.122,124.037,172.471,194.221,252.47c12.605,14.366,26.529,27.98,35.293,45.445c1.488,0,2.982,0,4.471,0
	c42.777-56.316,95.191-104.181,139.631-159.03c89.58-110.573,162.254-230.375,198.188-369.589
	C893.864,376.806,882.824,263.394,806.934,161.859z"/>
</svg>
