<svg width="100" height="100" viewBox="0 0 100 100" fill="none" xmlns="http://www.w3.org/2000/svg">
<path d="M68.1818 63.4286C75.7273 63.4286 81.7727 57.3029 81.7727 49.7143C81.7727 42.1257 75.7273 36 68.1818 36C60.6364 36 54.5455 42.1257 54.5455 49.7143C54.5455 57.3029 60.6364 63.4286 68.1818 63.4286ZM31.8182 63.4286C39.3636 63.4286 45.4091 57.3029 45.4091 49.7143C45.4091 42.1257 39.3636 36 31.8182 36C24.2727 36 18.1818 42.1257 18.1818 49.7143C18.1818 57.3029 24.2727 63.4286 31.8182 63.4286ZM31.8182 72.5714C21.2273 72.5714 0 77.92 0 88.5714V100H63.6364V88.5714C63.6364 77.92 42.4091 72.5714 31.8182 72.5714ZM68.1818 72.5714C66.8636 72.5714 65.3636 72.6629 63.7727 72.8C69.0455 76.64 72.7273 81.8057 72.7273 88.5714V100H100V88.5714C100 77.92 78.7727 72.5714 68.1818 72.5714Z" fill="#004F94"/>
</svg>
