<svg width="1040" height="1040" viewBox="0 0 1040 1040" fill="none" xmlns="http://www.w3.org/2000/svg">
<path d="M806.934 161.859C749.723 85.315 673.006 39.415 578.588 23.545C575.096 22.961 573.604 23.501 568.832 22.334C536.047 22.334 503.469 16.751 471.75 21.001C456.385 26.001 457.119 23.959 450.5 25.334C268.879 63.094 147.773 235.577 170.68 418.683C184.835 531.811 234.319 630.801 291.2 727.086C345.62 819.208 415.237 899.557 485.421 979.556C498.026 993.922 511.95 1007.54 520.714 1025C522.202 1025 523.696 1025 525.185 1025C567.962 968.685 620.376 920.82 664.816 865.971C754.396 755.398 827.07 635.596 863.004 496.382C893.863 376.806 882.824 263.394 806.934 161.859Z" fill="url(#paint0_linear)"/>
<path d="M445.543 193.106C445.543 222.689 421.559 246.673 391.975 246.673C362.391 246.673 338.409 222.688 338.409 193.106C338.409 163.519 362.391 139.539 391.975 139.539C421.559 139.539 445.543 163.519 445.543 193.106Z" fill="white"/>
<path d="M696.737 193.106C696.737 222.689 672.757 246.673 643.169 246.673C613.585 246.673 589.604 222.688 589.604 193.106C589.604 163.519 613.585 139.539 643.169 139.539C672.757 139.54 696.737 163.519 696.737 193.106Z" fill="white"/>
<defs>
<linearGradient id="paint0_linear" x1="167.903" y1="522.202" x2="879.048" y2="522.202" gradientUnits="userSpaceOnUse">
<stop stop-color="#619FD6"/>
<stop offset="0.5158" stop-color="#1173B8"/>
<stop offset="1" stop-color="#004C8C"/>
</linearGradient>
</defs>
</svg>
